<?xml version="1.0" standalone="no"?>
<!DOCTYPE svg PUBLIC "-//W3C//DTD SVG 20010904//EN"
 "http://www.w3.org/TR/2001/REC-SVG-20010904/DTD/svg10.dtd">
<svg version="1.0" xmlns="http://www.w3.org/2000/svg"
 width="201.000000pt" height="191.000000pt" viewBox="0 0 201.000000 191.000000"
 preserveAspectRatio="xMidYMid meet">

<g transform="translate(0.000000,191.000000) scale(0.100000,-0.100000)"
fill="#000000" stroke="none">
<path d="M527 1809 c-51 -44 -115 -132 -141 -193 -25 -61 -18 -66 9 -7 51 108
156 222 176 190 6 -10 9 -4 9 19 0 17 -1 32 -2 32 -2 0 -25 -19 -51 -41z"/>
<path d="M1450 1833 c0 -11 12 -24 30 -31 16 -8 50 -37 74 -66 39 -45 57 -75
104 -176 l12 -25 -6 25 c-19 84 -111 218 -185 271 -27 19 -29 19 -29 2z"/>
<path d="M334 1752 c-17 -12 -51 -66 -58 -92 -4 -14 5 -4 19 22 13 26 33 51
42 57 10 5 15 12 13 15 -3 3 -10 2 -16 -2z"/>
<path d="M1685 1750 c-3 -5 -1 -10 5 -10 6 0 24 -21 40 -47 17 -26 30 -42 30
-37 0 11 -57 104 -64 104 -3 0 -8 -4 -11 -10z"/>
<path d="M1781 1703 c7 -12 15 -20 18 -17 3 2 -3 12 -13 22 -17 16 -18 16 -5
-5z"/>
<path d="M160 1665 c0 -8 4 -15 10 -15 5 0 7 7 4 15 -4 8 -8 15 -10 15 -2 0
-4 -7 -4 -15z"/>
<path d="M1857 1666 c-9 -24 -9 -28 3 -21 6 3 10 -2 11 -12 0 -10 3 -13 5 -7
3 6 1 21 -4 34 -8 20 -9 21 -15 6z"/>
<path d="M152 1620 c0 -14 2 -19 5 -12 2 6 2 18 0 25 -3 6 -5 1 -5 -13z"/>
<path d="M1761 1624 c0 -11 3 -14 6 -6 3 7 2 16 -1 19 -3 4 -6 -2 -5 -13z"/>
<path d="M458 1603 c-29 -31 -48 -65 -48 -85 0 -7 7 1 16 17 8 17 29 45 47 63
17 17 26 32 21 32 -6 0 -22 -12 -36 -27z"/>
<path d="M1561 1595 c19 -19 41 -50 51 -68 21 -39 23 -32 4 15 -15 35 -62 88
-78 88 -5 0 5 -16 23 -35z"/>
<path d="M296 1587 c-52 -52 -42 -213 15 -262 17 -14 38 -24 47 -24 15 1 15 2
-1 6 -41 11 -61 123 -38 213 26 100 22 112 -23 67z"/>
<path d="M1690 1608 c0 -2 7 -28 15 -58 31 -116 13 -233 -37 -243 -23 -4 -23
-4 -1 -6 33 -2 81 45 94 92 6 23 9 71 6 107 -4 54 -9 68 -32 87 -22 19 -45 30
-45 21z"/>
<path d="M1883 1540 c0 -30 2 -43 4 -27 2 15 2 39 0 55 -2 15 -4 2 -4 -28z"/>
<path d="M143 1540 c0 -25 2 -35 4 -22 2 12 2 32 0 45 -2 12 -4 2 -4 -23z"/>
<path d="M434 1493 c-12 -18 -18 -47 -18 -80 0 -44 -2 -50 -15 -40 -12 10 -13
9 -3 -8 6 -11 13 -32 16 -47 4 -15 27 -49 54 -76 35 -36 38 -38 11 -7 -20 23
-42 51 -48 62 -14 28 2 165 23 198 9 14 12 25 7 25 -5 0 -17 -12 -27 -27z"/>
<path d="M1580 1483 c10 -21 23 -54 28 -73 l10 -35 1 35 c1 38 -26 101 -46
108 -8 2 -5 -11 7 -35z"/>
<path d="M1671 1504 c0 -11 3 -14 6 -6 3 7 2 16 -1 19 -3 4 -6 -2 -5 -13z"/>
<path d="M151 1464 c0 -11 3 -14 6 -6 3 7 2 16 -1 19 -3 4 -6 -2 -5 -13z"/>
<path d="M206 1442 c-14 -28 -15 -39 -5 -70 20 -65 81 -112 143 -112 28 0 44
15 18 17 -66 5 -118 62 -130 144 l-8 54 -18 -33z"/>
<path d="M1800 1443 c0 -76 -59 -163 -110 -163 -11 0 -20 -4 -20 -10 0 -27 99
5 131 42 27 30 41 90 30 121 -15 38 -31 43 -31 10z"/>
<path d="M1872 1450 c0 -14 2 -19 5 -12 2 6 2 18 0 25 -3 6 -5 1 -5 -13z"/>
<path d="M468 1443 c-9 -10 -18 -34 -22 -53 -3 -19 -3 -28 0 -20 3 8 15 32 25
53 21 41 20 46 -3 20z"/>
<path d="M1549 1448 c7 -10 20 -35 28 -55 l14 -38 -6 35 c-3 19 -15 44 -27 55
-15 14 -18 15 -9 3z"/>
<path d="M977 1403 c18 -2 50 -2 70 0 21 2 7 4 -32 4 -38 0 -55 -2 -38 -4z"/>
<path d="M490 1390 c-8 -5 -12 -12 -9 -15 4 -3 12 1 19 10 14 17 11 19 -10 5z"/>
<path d="M908 1393 c7 -3 16 -2 19 1 4 3 -2 6 -13 5 -11 0 -14 -3 -6 -6z"/>
<path d="M1108 1393 c7 -3 16 -2 19 1 4 3 -2 6 -13 5 -11 0 -14 -3 -6 -6z"/>
<path d="M1538 1382 c9 -10 19 -17 21 -16 6 5 -20 34 -30 34 -5 0 -1 -8 9 -18z"/>
<path d="M860 1380 c-8 -5 -10 -10 -5 -10 6 0 17 5 25 10 8 5 11 10 5 10 -5 0
-17 -5 -25 -10z"/>
<path d="M46 1358 c10 -33 53 -90 83 -112 19 -14 16 -8 -10 20 -20 21 -44 53
-53 71 -15 29 -15 32 2 36 12 3 11 5 -6 6 -20 1 -22 -2 -16 -21z"/>
<path d="M1623 1364 c-5 -13 -8 -13 -15 -2 -7 9 -8 4 -4 -15 4 -15 2 -37 -4
-50 -11 -21 -11 -21 4 -3 9 11 16 28 16 37 0 10 7 25 16 33 8 9 10 16 4 16 -6
0 -13 -7 -17 -16z"/>
<path d="M1666 1367 c3 -10 9 -15 12 -12 3 3 0 11 -7 18 -10 9 -11 8 -5 -6z"/>
<path d="M1962 1373 c14 -3 15 -9 7 -29 -14 -38 -55 -89 -84 -104 -14 -7 -23
-15 -21 -18 10 -10 70 44 97 86 35 55 36 72 7 71 -17 -1 -18 -3 -6 -6z"/>
<path d="M351 1344 c0 -11 3 -14 6 -6 3 7 2 16 -1 19 -3 4 -6 -2 -5 -13z"/>
<path d="M802 1344 c10 -10 20 -16 22 -13 3 3 -5 11 -17 18 -21 13 -21 12 -5
-5z"/>
<path d="M910 1350 c-18 -12 -2 -12 25 0 13 6 15 9 5 9 -8 0 -22 -4 -30 -9z"/>
<path d="M1088 1353 c7 -3 16 -2 19 1 4 3 -2 6 -13 5 -11 0 -14 -3 -6 -6z"/>
<path d="M1225 1350 c-3 -5 -1 -10 4 -10 6 0 11 5 11 10 0 6 -2 10 -4 10 -3 0
-8 -4 -11 -10z"/>
<path d="M750 1330 c0 -5 5 -10 11 -10 5 0 7 5 4 10 -3 6 -8 10 -11 10 -2 0
-4 -4 -4 -10z"/>
<path d="M843 1307 c-20 -13 -32 -30 -32 -42 1 -17 2 -17 6 -2 2 9 18 24 34
32 16 9 29 20 29 25 0 13 1 13 -37 -13z"/>
<path d="M1150 1321 c0 -5 16 -18 35 -30 19 -11 35 -16 35 -12 0 5 -16 18 -35
30 -19 11 -35 16 -35 12z"/>
<path d="M480 1305 c-15 -18 -6 -47 22 -71 l22 -19 -22 29 c-28 37 -28 54 1
66 15 6 17 9 6 9 -9 1 -22 -6 -29 -14z"/>
<path d="M1528 1310 c24 -10 29 -38 10 -60 -11 -12 -10 -12 5 -1 30 23 15 72
-22 70 -10 0 -7 -4 7 -9z"/>
<path d="M707 1296 c-4 -9 -1 -17 6 -17 23 -2 52 3 67 12 10 5 3 6 -19 2 -21
-4 -36 -2 -41 6 -5 10 -9 9 -13 -3z"/>
<path d="M197 1293 c-9 -15 17 -57 43 -70 34 -17 75 -16 110 2 17 9 30 17 30
18 0 1 -27 2 -59 2 -52 0 -64 4 -89 28 -17 16 -32 25 -35 20z"/>
<path d="M1253 1288 c23 -12 77 -13 77 0 0 4 -20 7 -44 7 -25 0 -39 -3 -33 -7z"/>
<path d="M1805 1275 c-37 -32 -64 -39 -117 -32 l-41 6 29 -20 c50 -32 119 -21
149 25 25 38 14 51 -20 21z"/>
<path d="M767 1263 c-11 -10 -8 -20 7 -26 10 -4 12 0 9 14 -6 21 -7 22 -16 12z"/>
<path d="M1252 1265 c4 -4 3 -14 -4 -22 -8 -11 -7 -12 6 -7 19 7 21 20 4 30
-7 4 -10 4 -6 -1z"/>
<path d="M1530 1213 l-55 -58 58 55 c31 30 57 56 57 57 0 8 -10 -1 -60 -54z"/>
<path d="M1481 1251 c-1 -8 -11 -26 -23 -40 l-22 -26 28 26 c16 15 26 33 23
40 -4 11 -6 11 -6 0z"/>
<path d="M617 1243 c-13 -13 -7 -51 13 -74 l20 -24 -16 39 c-8 21 -13 45 -10
52 6 15 3 18 -7 7z"/>
<path d="M1407 1231 c3 -11 -2 -35 -11 -53 l-16 -33 20 24 c21 24 27 66 11 75
-5 4 -7 -3 -4 -13z"/>
<path d="M1494 1208 l-19 -23 23 19 c21 18 27 26 19 26 -2 0 -12 -10 -23 -22z"/>
<path d="M570 1211 c0 -6 4 -13 10 -16 6 -3 7 1 4 9 -7 18 -14 21 -14 7z"/>
<path d="M1926 1205 c-11 -8 -15 -15 -9 -15 6 0 16 7 23 15 16 19 11 19 -14 0z"/>
<path d="M661 1189 c-1 -14 6 -34 15 -45 8 -10 12 -13 8 -5 -4 8 -11 28 -15
45 -6 29 -7 29 -8 5z"/>
<path d="M429 1179 c-11 -11 -18 -27 -15 -36 3 -8 6 -18 6 -23 0 -12 34 -22
54 -14 9 3 16 14 15 23 0 10 -2 11 -6 4 -6 -16 -35 -17 -51 -1 -17 17 -15 24
10 48 12 11 19 20 15 20 -4 0 -16 -9 -28 -21z"/>
<path d="M1366 1185 c-9 -26 -7 -32 5 -12 6 10 9 21 6 23 -2 3 -7 -2 -11 -11z"/>
<path d="M1588 1184 c42 -31 15 -83 -29 -55 -22 13 -26 -1 -4 -19 20 -17 54
-3 61 25 7 29 0 41 -29 55 -22 10 -22 10 1 -6z"/>
<path d="M470 1186 c0 -2 7 -7 16 -10 8 -3 12 -2 9 4 -6 10 -25 14 -25 6z"/>
<path d="M1043 1179 c9 -6 14 -15 11 -21 -4 -7 -2 -8 5 -4 14 9 -3 36 -23 36
-6 0 -3 -5 7 -11z"/>
<path d="M1535 1180 c-3 -6 1 -7 9 -4 18 7 21 14 7 14 -6 0 -13 -4 -16 -10z"/>
<path d="M530 1176 c0 -2 8 -10 18 -17 15 -13 16 -12 3 4 -13 16 -21 21 -21
13z"/>
<path d="M964 1169 c-3 -6 -1 -16 5 -22 9 -9 10 -7 5 7 -6 15 -4 17 6 11 9 -5
11 -4 6 3 -9 15 -13 15 -22 1z"/>
<path d="M701 1154 c0 -11 3 -14 6 -6 3 7 2 16 -1 19 -3 4 -6 -2 -5 -13z"/>
<path d="M276 1145 c4 -9 19 -15 39 -15 18 0 48 -11 69 -25 l37 -25 -18 24
c-25 34 -66 56 -102 56 -23 0 -29 -4 -25 -15z"/>
<path d="M1647 1119 c-30 -29 -34 -35 -12 -20 17 12 50 25 74 29 56 9 67 32
16 32 -28 0 -44 -8 -78 -41z"/>
<path d="M1066 1134 c-9 -25 -7 -39 10 -60 15 -18 15 -18 4 3 -6 13 -8 34 -4
48 7 28 0 34 -10 9z"/>
<path d="M833 1115 c-3 -9 -3 -18 -1 -21 3 -3 8 4 11 16 6 23 -1 27 -10 5z"/>
<path d="M950 1125 c0 -5 5 -17 10 -25 5 -8 10 -10 10 -5 0 6 -5 17 -10 25 -5
8 -10 11 -10 5z"/>
<path d="M1187 1109 c4 -13 8 -18 11 -10 2 7 -1 18 -6 23 -8 8 -9 4 -5 -13z"/>
<path d="M606 1111 c-3 -4 6 -6 19 -3 14 2 25 6 25 8 0 8 -39 4 -44 -5z"/>
<path d="M1380 1116 c0 -2 11 -6 25 -8 13 -3 22 -1 19 3 -5 9 -44 13 -44 5z"/>
<path d="M166 1098 c21 -35 49 -68 58 -68 5 0 -2 13 -17 28 -15 15 -27 33 -27
40 0 7 -5 12 -11 12 -5 0 -7 -6 -3 -12z"/>
<path d="M665 1099 c6 -9 94 -43 99 -38 2 2 -20 13 -50 25 -29 12 -51 18 -49
13z"/>
<path d="M1850 1099 c0 -6 -12 -27 -27 -47 -24 -33 -25 -35 -4 -17 28 24 56
75 41 75 -5 0 -10 -5 -10 -11z"/>
<path d="M336 1076 c7 -19 65 -46 96 -45 18 0 15 4 -18 19 -23 10 -45 23 -48
29 -10 16 -36 13 -30 -3z"/>
<path d="M612 1075 c15 -16 20 -17 30 -6 11 11 10 13 0 7 -7 -4 -21 -2 -30 5
-15 12 -15 11 0 -6z"/>
<path d="M1664 1079 c-3 -6 -25 -19 -48 -29 -35 -16 -37 -19 -16 -19 29 -1 92
30 98 47 5 15 -25 16 -34 1z"/>
<path d="M438 1073 c6 -2 18 -2 25 0 6 3 1 5 -13 5 -14 0 -19 -2 -12 -5z"/>
<path d="M944 1069 c-4 -7 -3 -9 4 -5 5 3 13 0 15 -6 4 -9 6 -10 6 -1 1 17
-16 25 -25 12z"/>
<path d="M1387 1069 c7 -7 15 -10 18 -7 3 3 -2 9 -12 12 -14 6 -15 5 -6 -5z"/>
<path d="M1568 1073 c6 -2 18 -2 25 0 6 3 1 5 -13 5 -14 0 -19 -2 -12 -5z"/>
<path d="M1268 1063 c7 -3 16 -2 19 1 4 3 -2 6 -13 5 -11 0 -14 -3 -6 -6z"/>
<path d="M502 1048 c-26 -26 -3 -88 33 -88 30 0 58 51 36 64 -5 4 -7 -2 -4
-12 7 -28 -20 -46 -47 -32 -15 8 -20 19 -18 38 4 36 37 40 83 12 19 -12 43
-19 52 -17 15 4 15 5 -2 6 -11 1 -33 10 -50 21 -34 23 -65 26 -83 8z"/>
<path d="M1442 1039 c-18 -12 -41 -19 -52 -16 -11 3 -18 1 -14 -4 9 -15 34
-10 70 12 47 29 79 23 79 -15 0 -39 -31 -59 -50 -33 -7 11 -11 26 -8 35 4 13
3 14 -5 3 -13 -19 -3 -49 19 -56 29 -10 59 12 59 43 0 54 -41 67 -98 31z"/>
<path d="M890 1041 c0 -10 19 -25 25 -20 1 2 -3 10 -11 17 -8 7 -14 8 -14 3z"/>
<path d="M940 1045 c0 -5 5 -17 10 -25 5 -8 10 -10 10 -5 0 6 -5 17 -10 25 -5
8 -10 11 -10 5z"/>
<path d="M1126 1033 c-6 -14 -5 -15 5 -6 7 7 10 15 7 18 -3 3 -9 -2 -12 -12z"/>
<path d="M300 1029 c0 -21 57 -67 96 -78 21 -6 57 -10 79 -10 38 1 39 1 10 9
-48 12 -106 39 -141 65 -36 28 -44 30 -44 14z"/>
<path d="M1670 1004 c-30 -19 -75 -41 -100 -50 l-45 -14 56 4 c31 2 71 12 88
20 29 15 69 62 60 71 -2 2 -29 -12 -59 -31z"/>
<path d="M1322 1014 c10 -10 20 -16 22 -13 3 3 -5 11 -17 18 -21 13 -21 12 -5
-5z"/>
<path d="M690 1010 c-8 -5 -10 -10 -5 -10 6 0 17 5 25 10 8 5 11 10 5 10 -5 0
-17 -5 -25 -10z"/>
<path d="M726 1005 c-3 -8 -1 -15 4 -15 6 0 10 7 10 15 0 8 -2 15 -4 15 -2 0
-6 -7 -10 -15z"/>
<path d="M1290 1005 c0 -8 4 -15 10 -15 5 0 7 7 4 15 -4 8 -8 15 -10 15 -2 0
-4 -7 -4 -15z"/>
<path d="M1769 1003 c-13 -16 -12 -17 4 -4 16 13 21 21 13 21 -2 0 -10 -8 -17
-17z"/>
<path d="M880 1001 c0 -14 38 -34 53 -27 7 2 5 5 -5 5 -9 1 -24 8 -32 17 -9 8
-16 11 -16 5z"/>
<path d="M1140 1003 c0 -6 -12 -16 -27 -21 -24 -9 -25 -11 -7 -11 23 -1 51 25
40 36 -3 3 -6 1 -6 -4z"/>
<path d="M644 975 c-7 -17 3 -35 19 -34 9 0 9 2 0 6 -7 2 -13 11 -13 18 0 7 6
16 13 18 9 4 9 6 -1 6 -7 1 -15 -6 -18 -14z"/>
<path d="M686 977 c3 -10 9 -15 12 -12 3 3 0 11 -7 18 -10 9 -11 8 -5 -6z"/>
<path d="M1335 979 c-4 -6 -5 -12 -2 -15 2 -3 7 2 10 11 7 17 1 20 -8 4z"/>
<path d="M1375 965 c0 -13 3 -21 8 -18 4 2 7 10 7 18 0 8 -3 16 -7 18 -5 3 -8
-5 -8 -18z"/>
<path d="M582 960 c-18 -30 -110 -53 -163 -41 -24 5 -45 9 -46 7 -2 -2 6 -11
17 -21 30 -27 108 -31 147 -6 31 20 70 67 61 76 -2 2 -9 -5 -16 -15z"/>
<path d="M1440 957 c0 -15 34 -49 67 -66 44 -23 135 -7 147 25 5 14 -15 13
-62 -2 -24 -7 -109 17 -131 37 -15 14 -21 16 -21 6z"/>
<path d="M962 948 c6 -18 28 -21 28 -4 0 9 -7 16 -16 16 -9 0 -14 -5 -12 -12z"/>
<path d="M1042 949 c2 -6 8 -10 13 -10 5 0 11 4 13 10 2 6 -4 11 -13 11 -9 0
-15 -5 -13 -11z"/>
<path d="M590 910 c-6 -11 -27 -29 -48 -39 -34 -19 -35 -20 -11 -21 26 0 61
30 72 63 9 23 0 22 -13 -3z"/>
<path d="M1430 910 c22 -44 42 -60 74 -60 l31 0 -30 16 c-16 8 -43 27 -59 42
l-29 27 13 -25z"/>
<path d="M230 910 c0 -8 61 -33 66 -27 2 2 -12 10 -31 19 -19 8 -35 12 -35 8z"/>
<path d="M1776 905 c-11 -8 -15 -15 -10 -15 6 0 19 7 30 15 10 8 15 14 9 14
-5 0 -19 -6 -29 -14z"/>
<path d="M1210 900 c-8 -5 -12 -12 -9 -15 4 -3 12 1 19 10 14 17 11 19 -10 5z"/>
<path d="M821 884 c0 -11 3 -14 6 -6 3 7 2 16 -1 19 -3 4 -6 -2 -5 -13z"/>
<path d="M1344 882 c4 -7 2 -21 -5 -30 -12 -15 -11 -15 6 0 16 15 17 20 6 30
-11 11 -13 10 -7 0z"/>
<path d="M328 873 c7 -3 16 -2 19 1 4 3 -2 6 -13 5 -11 0 -14 -3 -6 -6z"/>
<path d="M1688 873 c6 -2 18 -2 25 0 6 3 1 5 -13 5 -14 0 -19 -2 -12 -5z"/>
<path d="M682 854 c10 -10 20 -16 22 -13 3 3 -5 11 -17 18 -21 13 -21 12 -5
-5z"/>
<path d="M980 860 c-13 -8 -13 -10 2 -10 9 0 20 5 23 10 8 13 -5 13 -25 0z"/>
<path d="M1030 860 c0 -6 7 -10 15 -10 8 0 15 2 15 4 0 2 -7 6 -15 10 -8 3
-15 1 -15 -4z"/>
<path d="M890 840 c7 -14 16 -31 20 -39 3 -8 13 -17 21 -20 9 -3 7 2 -4 14
-11 10 -16 26 -13 37 2 11 2 17 -1 14 -4 -3 -13 0 -21 7 -13 11 -14 9 -2 -13z"/>
<path d="M1117 830 c3 -11 -1 -28 -8 -38 -13 -15 -12 -16 4 -3 18 14 23 46 8
55 -5 4 -7 -3 -4 -14z"/>
<path d="M655 810 l-40 -7 35 -1 c19 -1 42 3 50 8 16 11 14 11 -45 0z"/>
<path d="M840 804 l-35 -13 38 0 c26 -1 37 3 37 14 0 8 -1 14 -2 14 -2 -1 -19
-7 -38 -15z"/>
<path d="M1150 804 c0 -10 11 -14 37 -14 42 0 41 3 -4 18 -27 9 -33 8 -33 -4z"/>
<path d="M1331 809 c13 -8 88 -14 78 -5 -2 2 -24 6 -48 9 -29 4 -40 2 -30 -4z"/>
<path d="M759 777 c5 -5 19 -7 32 -5 20 3 19 5 -9 9 -20 3 -29 2 -23 -4z"/>
<path d="M1245 780 l-30 -8 27 -1 c15 0 30 4 33 9 3 6 5 9 3 9 -2 -1 -16 -5
-33 -9z"/>
<path d="M710 766 c0 -25 71 -35 115 -16 14 6 6 7 -22 3 -31 -4 -50 -1 -68 11
-20 13 -25 14 -25 2z"/>
<path d="M1299 764 c-10 -13 -25 -15 -64 -11 -32 3 -43 2 -30 -3 44 -19 125
-6 125 20 0 15 -16 12 -31 -6z"/>
<path d="M380 755 c0 -8 9 -10 25 -7 14 2 25 6 25 7 0 1 -11 5 -25 7 -16 3
-25 1 -25 -7z"/>
<path d="M632 758 c-14 -14 -16 -48 -3 -48 5 0 7 9 4 20 -4 14 1 22 18 29 14
6 18 10 9 10 -9 1 -21 -4 -28 -11z"/>
<path d="M1379 759 c17 -7 22 -15 18 -29 -3 -11 -1 -20 4 -20 13 0 11 34 -3
48 -7 7 -19 12 -27 11 -10 0 -6 -4 8 -10z"/>
<path d="M1620 760 c-25 -6 -25 -6 5 -12 34 -7 37 -6 27 8 -4 6 -18 8 -32 4z"/>
<path d="M850 739 c-19 -10 -46 -18 -60 -19 -14 0 -44 -9 -68 -20 -43 -20 -62
-48 -62 -96 0 -27 40 -74 64 -74 11 0 8 7 -9 25 -51 50 -21 109 74 144 33 12
70 30 83 41 28 24 24 23 -22 -1z"/>
<path d="M1160 741 c14 -11 51 -30 83 -42 93 -35 123 -94 72 -144 -27 -28 -12
-34 23 -9 34 24 44 59 28 97 -17 43 -32 54 -91 68 -28 6 -70 20 -95 30 l-45
20 25 -20z"/>
<path d="M655 739 c-11 -16 -2 -17 25 -2 24 12 24 13 3 13 -12 0 -25 -5 -28
-11z"/>
<path d="M894 729 c-10 -12 -45 -34 -76 -50 -42 -21 -59 -36 -64 -56 -7 -28 4
-54 27 -61 11 -4 12 -2 2 9 -24 25 -15 59 19 77 31 17 129 101 117 102 -3 0
-14 -9 -25 -21z"/>
<path d="M950 740 c-9 -6 -10 -10 -3 -10 6 0 15 5 18 10 8 12 4 12 -15 0z"/>
<path d="M1130 726 c14 -16 49 -43 78 -62 53 -35 67 -65 40 -92 -9 -9 -8 -12
5 -12 9 0 21 9 27 19 17 33 -4 68 -58 95 -27 14 -64 37 -83 52 l-34 28 25 -28z"/>
<path d="M1350 743 c8 -3 19 -11 23 -17 6 -7 7 -6 4 4 -2 8 -12 16 -23 17 -13
2 -15 1 -4 -4z"/>
<path d="M1465 720 c10 -11 20 -20 23 -20 3 0 -3 9 -13 20 -10 11 -20 20 -23
20 -3 0 3 -9 13 -20z"/>
<path d="M959 713 c-13 -16 -12 -17 4 -4 16 13 21 21 13 21 -2 0 -10 -8 -17
-17z"/>
<path d="M1050 726 c0 -2 8 -10 18 -17 15 -13 16 -12 3 4 -13 16 -21 21 -21
13z"/>
<path d="M960 690 c-9 -6 -10 -10 -3 -10 6 0 15 5 18 10 8 12 4 12 -15 0z"/>
<path d="M1155 670 c7 -11 65 -43 65 -36 0 2 -16 13 -36 25 -19 12 -32 16 -29
11z"/>
<path d="M630 655 c-22 -26 -23 -87 -2 -125 16 -28 24 -34 46 -32 18 2 26 -1
26 -12 0 -9 7 -16 15 -16 8 0 15 7 15 15 0 8 -6 15 -14 15 -8 0 -28 12 -45 26
-35 29 -49 83 -32 120 12 27 9 31 -9 9z"/>
<path d="M1012 630 c0 -19 2 -27 5 -17 2 9 2 25 0 35 -3 9 -5 1 -5 -18z"/>
<path d="M1398 615 c4 -40 0 -49 -31 -80 l-35 -35 29 0 c21 0 32 7 44 30 18
35 20 90 2 113 -10 15 -12 11 -9 -28z"/>
<path d="M1059 633 c-13 -16 -12 -17 4 -4 9 7 17 15 17 17 0 8 -8 3 -21 -13z"/>
<path d="M712 605 c0 -16 2 -22 5 -12 2 9 2 23 0 30 -3 6 -5 -1 -5 -18z"/>
<path d="M1312 605 c0 -16 2 -22 5 -12 2 9 2 23 0 30 -3 6 -5 -1 -5 -18z"/>
<path d="M956 607 c3 -10 9 -15 12 -12 3 3 0 11 -7 18 -10 9 -11 8 -5 -6z"/>
<path d="M1065 609 c-4 -6 -5 -12 -2 -15 2 -3 7 2 10 11 7 17 1 20 -8 4z"/>
<path d="M1230 607 c0 -8 -8 -18 -17 -20 -17 -4 -17 -5 0 -6 18 -1 35 25 23
36 -3 4 -6 -1 -6 -10z"/>
<path d="M808 583 c7 -3 16 -2 19 1 4 3 -2 6 -13 5 -11 0 -14 -3 -6 -6z"/>
<path d="M995 580 c-3 -5 -1 -10 4 -10 6 0 11 5 11 10 0 6 -2 10 -4 10 -3 0
-8 -4 -11 -10z"/>
<path d="M1031 564 c0 -11 3 -14 6 -6 3 7 2 16 -1 19 -3 4 -6 -2 -5 -13z"/>
<path d="M1085 510 c-19 -8 -19 -9 3 -9 12 -1 22 4 22 9 0 6 -1 10 -2 9 -2 0
-12 -4 -23 -9z"/>
<path d="M795 500 c-3 -5 -16 -10 -28 -10 -22 0 -22 -2 -22 -145 l0 -145 38 0
37 0 -1 53 -1 52 -9 -40 c-20 -84 -29 -60 -29 77 0 129 1 136 23 151 12 9 17
16 10 16 -6 1 -15 -3 -18 -9z"/>
<path d="M938 503 c7 -3 16 -2 19 1 4 3 -2 6 -13 5 -11 0 -14 -3 -6 -6z"/>
<path d="M1215 500 c3 -5 -2 -10 -12 -10 -17 0 -18 -11 -15 -145 3 -155 21
-203 23 -62 l1 82 14 -79 c12 -75 19 -94 28 -85 3 2 6 68 8 147 2 105 0 142
-9 142 -9 0 -10 -20 -6 -72 4 -56 3 -70 -6 -62 -7 6 -13 43 -14 82 -1 40 -6
72 -10 72 -5 0 -5 -4 -2 -10z"/>
<path d="M368 395 c3 -74 6 -95 18 -95 8 0 14 9 14 20 0 11 5 20 10 20 6 0 10
7 10 15 0 8 -4 15 -10 15 -5 0 -10 23 -10 50 0 28 4 50 9 50 13 0 29 -22 34
-50 2 -15 5 -5 6 23 l1 47 -42 0 -43 0 3 -95z"/>
<path d="M475 345 c0 -106 3 -145 12 -145 9 0 13 41 15 145 3 124 1 145 -12
145 -13 0 -15 -23 -15 -145z"/>
<path d="M530 345 c0 -90 4 -145 10 -145 6 0 10 34 10 83 1 95 14 87 25 -15 5
-49 11 -68 21 -68 11 0 14 26 14 145 0 109 -3 145 -12 145 -10 0 -12 -20 -11
-72 1 -51 -1 -65 -7 -48 -4 14 -8 39 -9 57 -1 42 -10 63 -27 63 -11 0 -14 -28
-14 -145z"/>
<path d="M667 483 c-3 -5 -8 -62 -11 -128 -4 -66 -9 -128 -12 -137 -3 -11 0
-18 9 -18 10 0 13 8 9 25 -3 19 0 25 13 25 13 0 16 -6 13 -25 -4 -17 -1 -25 8
-25 17 0 17 4 2 163 -10 114 -18 143 -31 120z m10 -195 c-2 -13 -4 -5 -4 17
-1 22 1 32 4 23 2 -10 2 -28 0 -40z"/>
<path d="M979 462 c5 -15 7 -80 6 -145 -1 -92 1 -117 12 -117 7 0 13 -4 13
-10 0 -5 5 -10 10 -10 7 0 7 6 0 19 -13 24 -13 141 -1 141 5 0 12 -10 14 -22
2 -13 4 4 4 37 0 33 -2 50 -4 38 -8 -42 -23 -24 -23 27 0 28 4 50 9 50 13 0
29 -22 34 -50 2 -15 5 -5 6 23 l1 47 -44 0 c-44 0 -44 0 -37 -28z"/>
<path d="M1107 483 c-4 -3 -7 -38 -8 -77 0 -39 -3 -101 -8 -138 -5 -54 -4 -68
6 -68 8 0 13 6 12 13 -3 24 1 37 12 37 7 0 9 -10 7 -25 -4 -18 -1 -25 10 -25
13 0 14 14 8 98 -12 175 -18 206 -39 185z m10 -195 c-2 -13 -4 -3 -4 22 0 25
2 35 4 23 2 -13 2 -33 0 -45z"/>
<path d="M1291 438 c1 -48 2 -50 9 -20 16 68 21 43 18 -89 -3 -128 -2 -136 15
-131 17 4 19 15 15 128 -1 68 0 124 4 124 4 0 9 -10 11 -22 2 -13 5 -4 6 20
l1 42 -40 0 -40 0 1 -52z"/>
<path d="M1416 393 c-4 -54 -9 -119 -13 -145 -4 -33 -2 -48 6 -48 6 0 11 11
11 25 0 14 5 25 10 25 6 0 10 -11 10 -25 0 -16 6 -25 16 -25 14 0 16 8 10 47
-3 26 -9 91 -13 145 -4 67 -10 98 -18 98 -8 0 -14 -31 -19 -97z m24 -88 c0
-19 -4 -35 -10 -35 -5 0 -10 16 -10 35 0 19 5 35 10 35 6 0 10 -16 10 -35z"/>
<path d="M1506 471 c-23 -25 -20 -60 9 -117 25 -50 36 -152 15 -139 -5 3 -10
26 -10 50 0 35 -3 43 -15 39 -17 -7 -20 -56 -5 -85 15 -27 56 -25 64 4 11 41
6 71 -19 125 -25 54 -33 122 -15 122 6 0 10 -16 10 -35 0 -19 5 -35 10 -35 6
0 10 16 10 35 0 44 -29 64 -54 36z"/>
<path d="M1601 428 c4 -29 8 -92 8 -140 1 -64 4 -88 14 -88 9 0 11 12 9 41 -4
42 14 174 29 217 6 16 5 22 -6 22 -11 0 -15 -12 -15 -46 0 -27 -4 -43 -10 -39
-5 3 -10 24 -10 46 0 26 -4 39 -13 39 -10 0 -12 -12 -6 -52z"/>
<path d="M355 160 c-4 -6 7 -10 24 -10 17 0 31 5 31 10 0 6 -11 10 -24 10 -14
0 -28 -4 -31 -10z"/>
<path d="M465 160 c4 -6 214 -10 596 -10 391 0 588 3 584 10 -4 6 -214 10
-596 10 -391 0 -588 -3 -584 -10z"/>
<path d="M1013 95 c0 -27 2 -38 4 -22 2 15 2 37 0 50 -2 12 -4 0 -4 -28z"/>
<path d="M1430 113 c0 -12 8 -18 25 -18 17 0 25 6 25 18 0 9 -5 17 -11 17 -5
0 -7 -4 -4 -10 3 -5 -1 -10 -10 -10 -9 0 -13 5 -10 10 3 6 1 10 -4 10 -6 0
-11 -8 -11 -17z"/>
<path d="M1510 111 c0 -14 5 -18 20 -14 25 7 34 19 20 28 -5 3 -10 1 -10 -4 0
-6 -5 -11 -11 -11 -5 0 -7 5 -4 10 3 6 1 10 -4 10 -6 0 -11 -9 -11 -19z"/>
<path d="M1580 110 c0 -15 7 -20 25 -20 18 0 25 5 25 20 0 11 -4 20 -10 20 -5
0 -7 -7 -4 -15 4 -10 0 -15 -11 -15 -11 0 -15 5 -11 15 3 8 1 15 -4 15 -6 0
-10 -9 -10 -20z"/>
</g>
</svg>
